<svg version="1.1" xmlns="http://www.w3.org/2000/svg" xmlns:xlink="http://www.w3.org/1999/xlink" width="500" height="500"><g data-paper-data="{&quot;description&quot;:&quot;Logo for daz_cv\n===============\n\nThis logo was generated by MarkMaker at http://emblemmatic.org/markmaker/ and may be composed of elements designed by others.\n\nThe font is Arizonia designed by TypeSETit and released under the OFL license via Google Fonts: https://www.google.com/fonts/specimen/Arizonia. The font includes this copyright statement: Copyright (c) 2011 TypeSETit, LLC (typesetit@att.net), with Reserved Font Name \\\&quot;Arizonia\\\n\nMarkMaker uses semantic data from the Princeton University WordNet database http://wordnet.princeton.edu and font descriptions from Google Fonts https://www.google.com/fonts.&quot;}" fill="none" fill-rule="nonzero" stroke="none" stroke-width="none" stroke-linecap="butt" stroke-linejoin="miter" stroke-miterlimit="10" stroke-dasharray="" stroke-dashoffset="0" font-family="none" font-weight="none" font-size="none" text-anchor="none" style="mix-blend-mode: normal"><path d="M67.04425,450v-400h365.9115v400z" fill="#6a0cc2" stroke-width="0"></path><g data-paper-data="{&quot;elementType&quot;:&quot;logo&quot;}" fill="#ffffff" stroke-width="1"><g data-paper-data="{&quot;elementType&quot;:&quot;text&quot;}"><g data-paper-data="{&quot;baseline&quot;:49.2,&quot;elementType&quot;:&quot;row&quot;}"><g data-paper-data="{&quot;baselineProportion&quot;:0.6165413533834587,&quot;fontSize&quot;:100,&quot;baseline&quot;:49.2,&quot;elementType&quot;:&quot;word&quot;}"><path d="M133.0717,380.01594c-1.31887,3.60954 -1.97831,6.55965 -1.97831,8.85032c0,2.29067 0.4859,4.02603 1.4577,5.20607c0.20824,0.27766 0.24295,0.46855 0.10412,0.57267c-0.13883,0.10412 -0.24295,0.15618 -0.31236,0.15618c-0.06941,0 -0.17354,-0.03471 -0.31236,-0.10412c-2.22126,-1.80477 -3.33188,-4.49457 -3.33188,-8.06941c0,-3.57483 0.72885,-7.68763 2.18655,-12.33838c-2.84598,3.67896 -5.65726,6.69848 -8.43383,9.05856c-3.33188,2.77657 -6.73318,4.16485 -10.20389,4.16485c-2.22126,0 -4.30368,-0.7462 -6.24728,-2.23861c-1.9436,-1.49241 -2.9154,-3.93926 -2.9154,-7.34056c-0.06941,-1.66594 0.24295,-3.57483 0.93709,-5.72668c-1.38828,1.24946 -2.27332,2.01301 -2.6551,2.29067c-0.38178,0.27766 -0.64208,0.27766 -0.78091,0c-0.13883,-0.27766 -0.20824,-0.53796 -0.20824,-0.78091c0,-0.24295 0.2256,-0.55531 0.67679,-0.93709c0.45119,-0.38178 2.86334,-2.93275 7.23644,-7.65292c2.56833,-2.84598 5.62255,-5.06724 9.16268,-6.66377c3.54013,-1.59653 6.90672,-2.39479 10.09977,-2.39479c2.9154,0 5.04989,0.50325 6.40346,1.50976c1.35358,1.00651 2.03037,2.27332 2.03037,3.80043c2.49891,-5.27548 5.18872,-10.29066 8.06941,-15.04554c2.88069,-4.75488 5.1193,-8.0347 6.71583,-9.83947c1.73536,-1.9436 3.92191,-2.9154 6.55965,-2.9154c2.63774,0 4.78958,0.72885 6.45553,2.18655c-1.4577,0.90239 -4.30368,3.8872 -8.53795,8.95444c-4.23427,5.06724 -8.36442,10.49891 -12.39044,16.295c-4.02603,5.79609 -7.2885,12.13014 -9.78741,19.00215M133.90467,360.337c0,-1.38828 -0.86768,-2.08243 -2.60303,-2.08243c-0.90239,0 -2.08243,0.27766 -3.54013,0.83297c-3.26247,1.24946 -6.49023,3.67896 -9.68329,7.2885c-3.95661,4.51193 -5.93492,8.81561 -5.93492,12.91105c0,2.4295 0.79826,3.8872 2.39479,4.3731c0.34707,0.13883 0.69414,0.20824 1.04121,0.20824c2.84598,0 7.08025,-2.84598 12.70281,-8.53795c1.52711,-1.4577 2.81128,-3.01952 3.85249,-4.68546c0.55531,-1.59653 1.28416,-3.43601 2.18655,-5.51843c-0.62473,0.41649 -1.12798,0.46855 -1.50976,0.15618c-0.38178,-0.31236 -0.29501,-1.00651 0.2603,-2.08243c0.55531,-1.07592 0.83297,-2.03037 0.83297,-2.86334z" data-paper-data="{&quot;elementType&quot;:&quot;letter&quot;,&quot;baseline&quot;:49.2,&quot;baselineProportion&quot;:0.8367346938775511,&quot;fontSize&quot;:100}"></path><path d="M187.83954,368.77083c0,0 -0.19089,0.2256 -0.57267,0.67679c-0.38178,0.45119 -0.9718,1.1974 -1.77006,2.23861c-0.79826,1.04121 -1.80477,2.46421 -3.01952,4.26898c-1.21475,1.80477 -1.82212,3.33188 -1.82212,4.58134c0,1.24946 0.53796,1.87418 1.61388,1.87418c1.07592,0 2.82863,-0.65944 5.25813,-1.97831c4.859,-2.77657 10.2386,-6.94142 16.13881,-12.49456c0.69414,-0.69414 1.14534,-0.79826 1.35358,-0.31236c0,0.06941 0,0.20824 0,0.41649c0,0.20824 -0.13883,0.45119 -0.41649,0.72885c-11.93925,11.24511 -20.61603,16.86766 -26.03034,16.86766c-1.59653,0 -2.93275,-0.53796 -4.00867,-1.61388c-1.07592,-1.07592 -1.61388,-2.34273 -1.61388,-3.80043c0,-1.4577 0.62473,-3.67896 1.87418,-6.66377c-3.12364,3.8872 -6.47288,6.88936 -10.04771,9.0065c-3.57483,2.11713 -6.36876,3.1757 -8.38177,3.1757c-2.01301,0 -3.73102,-0.60737 -5.15401,-1.82212c-1.42299,-1.21475 -2.13449,-2.72451 -2.13449,-4.52928c0,-5.13665 2.29067,-10.16919 6.87201,-15.0976c3.47071,-3.67896 7.7744,-6.28199 12.91105,-7.8091c2.29067,-0.76356 4.52928,-1.14534 6.71583,-1.14534c2.18655,0 4.30368,0.60737 6.3514,1.82212c2.04772,1.21475 3.34924,2.6551 3.90455,4.32104c2.08243,0 3.57483,0.76356 4.47722,2.29067c0.13883,0.20824 0.20824,0.55531 0.20824,1.04121c0,0.4859 -0.2603,1.04121 -0.78091,1.66594c-0.52061,0.62473 -1.16269,1.38828 -1.92625,2.29067M180.23868,358.46282c-1.4577,0 -3.19306,0.45119 -5.20607,1.35358c-3.54013,1.52711 -6.90672,4.16485 -10.09977,7.91322c-5.06724,5.96963 -7.60086,10.34272 -7.60086,13.11929c0,1.4577 0.59002,2.18655 1.77006,2.18655c0.9718,0 2.58568,-0.62473 4.84164,-1.87418c2.25596,-1.24946 5.22342,-3.71366 8.90238,-7.39262c0.20824,-0.20824 1.00651,-0.9718 2.39479,-2.29067c1.38828,-1.31887 2.56833,-2.46421 3.54013,-3.43601c3.26247,-3.4013 4.8937,-5.84815 4.8937,-7.34056c0,-1.49241 -1.14534,-2.23861 -3.43601,-2.23861z" data-paper-data="{&quot;elementType&quot;:&quot;letter&quot;,&quot;baseline&quot;:28.299999999999997,&quot;baselineProportion&quot;:0.9691780821917806,&quot;fontSize&quot;:100}"></path><path d="M223.65729,370.22853c6.10845,-2.56833 9.16268,-4.35574 9.16268,-5.36225c0,-1.00651 -2.9154,-1.50976 -8.7462,-1.50976c-7.42732,0 -11.59218,1.35358 -12.49456,4.06073c-1.11063,-0.76356 -1.66594,-1.73536 -1.66594,-2.9154c0,-0.27766 0.03471,-0.55531 0.10412,-0.83297c1.38828,-5.13665 7.04555,-7.70498 16.97178,-7.70498c0.34707,0 0.72885,0 1.14534,0c3.81778,0 6.49023,0.57267 8.01735,1.718c1.52711,1.14534 2.29067,2.34273 2.29067,3.59219c0,2.22126 -1.59653,4.3731 -4.78958,6.45553c-2.15184,1.38828 -6.10845,3.01952 -11.86984,4.8937c1.38828,-0.13883 3.29718,-0.20824 5.72668,-0.20824c2.4295,0 5.13665,0.59002 8.12147,1.77006c2.98481,1.18004 4.96312,3.05423 5.93492,5.62255c0.27766,0.83297 0.41649,1.97831 0.41649,3.43601c0,1.4577 -0.62473,3.4013 -1.87418,5.8308c-1.87418,3.60954 -5.3449,7.40997 -10.41214,11.40129c-5.06724,3.99132 -10.27331,7.13231 -15.61821,9.42298c-10.62038,4.51193 -20.02601,6.76789 -28.21689,6.76789c-4.51193,0 -7.63557,-1.00651 -9.37092,-3.01952c-0.55531,-0.69414 -0.83297,-1.35358 -0.83297,-1.97831c0,-0.62473 0.17354,-1.44035 0.52061,-2.44685c0.34707,-1.00651 1.24946,-2.27332 2.70716,-3.80043c3.26247,-3.47071 8.72884,-6.68112 16.39912,-9.63123c7.67027,-2.95011 14.55964,-4.42516 20.66809,-4.42516c4.44251,0 7.60086,0.59002 9.47505,1.77006c0.90239,0.62473 1.35358,1.16269 1.35358,1.61388c0,0.45119 -0.39913,0.57267 -1.1974,0.36442c-0.79826,-0.20824 -2.11713,-0.31236 -3.95661,-0.31236c-1.83948,0 -4.8937,0.45119 -9.16268,1.35358c-4.26898,0.90239 -9.24945,2.4295 -14.94142,4.58134c-5.69197,2.15184 -9.71799,4.8937 -12.07808,8.22559c-0.76356,1.11063 -1.14534,2.04772 -1.14534,2.81128c0,1.9436 1.87418,2.9154 5.62255,2.9154c5.90021,0 13.32754,-1.97831 22.28197,-5.93492c7.42732,-3.12364 13.46636,-7.53145 18.11712,-13.22341c3.05423,-3.74837 4.58134,-6.97613 4.58134,-9.68329c0,-1.24946 -0.31236,-2.39479 -0.93709,-3.43601c-1.73536,-2.9154 -5.8655,-4.3731 -12.39044,-4.3731c-0.55531,0 -1.85683,0.01735 -3.90455,0.05206c-2.04772,0.03471 -5.70932,0.64208 -10.98481,1.82212c-1.31887,0.27766 -1.9436,-0.03471 -1.87418,-0.93709c0.13883,-1.18004 0.9718,-2.29067 2.49891,-3.33188c0.41649,-0.27766 0.7462,-0.46855 0.98915,-0.57267c0.24295,-0.10412 2.09978,-0.62473 5.57049,-1.56182c3.47071,-0.93709 6.73318,-2.03037 9.78741,-3.27982z" data-paper-data="{&quot;elementType&quot;:&quot;letter&quot;,&quot;baseline&quot;:27.700000000000003,&quot;baselineProportion&quot;:0.47512864493996576,&quot;fontSize&quot;:100}"></path><path d="M312.78519,397.8207h-57.89148v-5.20607h57.89148z" data-paper-data="{&quot;elementType&quot;:&quot;letter&quot;,&quot;baseline&quot;:-7.5,&quot;baselineProportion&quot;:-1.5,&quot;fontSize&quot;:100}"></path><path d="M348.70706,360.12876c0,-1.31887 -0.69414,-1.97831 -2.08243,-1.97831c-1.18004,0 -3.00217,0.53796 -5.46637,1.61388c-2.46421,1.07592 -5.22342,3.38394 -8.27765,6.92407c-3.67896,4.3731 -5.51843,8.2603 -5.51843,11.66159c0,2.56833 0.9718,4.30368 2.9154,5.20607c0.62473,0.27766 1.35358,0.41649 2.18655,0.41649c2.84598,0 6.19522,-1.21475 10.04771,-3.64425c3.85249,-2.4295 8.83296,-6.45553 14.94142,-12.07808c0.9718,-0.9718 1.4577,-0.9718 1.4577,0c0,0.41649 -0.20824,0.79826 -0.62473,1.14534c-8.46854,7.7744 -14.69847,12.58133 -18.68979,14.42081c-3.99132,1.83948 -7.13231,2.75922 -9.42298,2.75922c-8.05205,0 -12.07808,-2.95011 -12.07808,-8.85032c0,-5.90021 2.6551,-10.98481 7.96529,-15.25378c5.31019,-4.26898 10.84598,-6.40346 16.60736,-6.40346c3.60954,0 6.03904,0.83297 7.2885,2.49891c0.76356,0.83297 1.14534,1.718 1.14534,2.6551c0,0.93709 -0.24295,1.90889 -0.72885,2.9154c-0.4859,1.00651 -1.26681,1.50976 -2.34273,1.50976c-1.07592,0 -1.2321,-0.67679 -0.46855,-2.03037c0.76356,-1.35358 1.14534,-2.51627 1.14534,-3.48807z" data-paper-data="{&quot;elementType&quot;:&quot;letter&quot;,&quot;baseline&quot;:27.599999999999994,&quot;baselineProportion&quot;:0.9419795221843003,&quot;fontSize&quot;:100}"></path><path d="M399.51829,353.88148c0.06941,0.13883 0.10412,0.27766 0.10412,0.41649c0,0.13883 -0.12147,0.17354 -0.36442,0.10412c-0.24295,-0.06941 -0.39913,-0.17354 -0.46855,-0.31236c-0.4859,-1.04121 -1.14534,-1.56182 -1.97831,-1.56182c-2.49891,0 -6.97613,5.13665 -13.43166,15.40996c-4.02603,6.52494 -7.39262,11.14099 -10.09977,13.84814c-1.38828,1.38828 -3.01952,2.36008 -4.8937,2.9154c-1.87418,0.55531 -3.22776,0.83297 -4.06073,0.83297c-0.83297,0 -1.49241,-0.10412 -1.97831,-0.31236c1.11063,-1.59653 2.29067,-4.18221 3.54013,-7.75704c1.24946,-3.57483 2.2039,-6.73318 2.86334,-9.47505c0.65944,-2.74186 0.95445,-4.11279 0.88503,-4.11279l-4.3731,4.3731c-2.22126,2.29067 -4.44251,4.30368 -6.66377,6.03904c-0.83297,0.69414 -1.24946,0.65944 -1.24946,-0.10412c0,-0.41649 0.19089,-0.79826 0.57267,-1.14534c0.38178,-0.34707 1.05857,-0.95445 2.03037,-1.82212c0.9718,-0.86768 1.61388,-1.44035 1.92625,-1.718c0.31236,-0.27766 0.90239,-0.81562 1.77006,-1.61388c0.86768,-0.79826 1.50976,-1.44035 1.92625,-1.92625c1.9436,-2.29067 3.36659,-4.23427 4.26898,-5.8308c0.34707,-0.83297 0.50325,-1.64859 0.46855,-2.44685c-0.03471,-0.79826 -0.20824,-1.31887 -0.52061,-1.56182c-0.31236,-0.24295 -0.43384,-0.53796 -0.36442,-0.88503c0.06941,-0.83297 0.65944,-1.04121 1.77006,-0.62473c2.4295,1.11063 3.74837,2.70716 3.95661,4.78958c0.20824,1.04121 0.31236,2.48156 0.31236,4.32104c0,1.83948 -0.34707,4.70282 -1.04121,8.59001c-0.69414,4.02603 -2.01301,7.49674 -3.95661,10.41214c3.12364,-2.01301 6.71583,-7.02819 10.77656,-15.04554c4.06073,-8.01735 7.23644,-13.13665 9.52711,-15.3579c0.9718,-0.9718 2.18655,-1.4577 3.64425,-1.4577c2.56833,0 4.26898,1.00651 5.10195,3.01952z" data-paper-data="{&quot;elementType&quot;:&quot;letter&quot;,&quot;baseline&quot;:32.599999999999994,&quot;baselineProportion&quot;:0.9789789789789789,&quot;fontSize&quot;:100}"></path></g></g></g></g><g data-paper-data="{&quot;elementType&quot;:&quot;emblem&quot;}" fill="#ffffff" stroke-width="1"><g data-paper-data="{&quot;baselineProportion&quot;:0.8367346938775511,&quot;fontSize&quot;:100,&quot;baseline&quot;:49.2,&quot;elementType&quot;:&quot;word&quot;}"><path d="M252.134,256.38124c-4.91466,13.45066 -7.372,24.44399 -7.372,32.97998c0,8.536 1.81067,15.00266 5.432,19.39999c0.776,1.03467 0.90533,1.746 0.388,2.134c-0.51733,0.388 -0.90533,0.582 -1.164,0.582c-0.25867,0 -0.64667,-0.12933 -1.164,-0.388c-8.27733,-6.72533 -12.41599,-16.74866 -12.41599,-30.06998c0,-13.32133 2.716,-28.64732 8.148,-45.97797c-10.60533,13.70933 -21.08132,24.96132 -31.42798,33.75598c-12.41599,10.34666 -25.09065,15.51999 -38.02398,15.51999c-8.27733,0 -16.03732,-2.78067 -23.27999,-8.342c-7.24266,-5.56133 -10.86399,-14.67933 -10.86399,-27.35398c-0.25867,-6.208 0.90533,-13.32133 3.492,-21.33999c-5.17333,4.656 -8.47133,7.50133 -9.89399,8.536c-1.42267,1.03467 -2.39267,1.03467 -2.91,0c-0.51733,-1.03467 -0.776,-2.00467 -0.776,-2.91c0,-0.90533 0.84067,-2.06933 2.522,-3.492c1.68133,-1.42267 10.66999,-10.92866 26.96598,-28.51798c9.57066,-10.60533 20.95199,-18.88266 34.14398,-24.83199c13.19199,-5.94933 25.73732,-8.92399 37.63598,-8.92399c10.86399,0 18.81799,1.87533 23.86199,5.626c5.044,3.75066 7.566,8.47133 7.566,14.16199c9.31199,-19.65866 19.33532,-38.34731 30.06998,-56.06597c10.73466,-17.71866 19.07666,-29.94065 25.02599,-36.66598c6.46666,-7.24266 14.61466,-10.86399 24.44399,-10.86399c9.82933,0 17.84799,2.716 24.05599,8.148c-5.432,3.36266 -16.03732,14.48533 -31.81598,33.36798c-15.77866,18.88266 -31.16932,39.12331 -46.17197,60.72197c-15.00266,21.59865 -27.15998,45.20197 -36.47198,70.80996M255.238,183.04928c0,-5.17333 -3.23333,-7.76 -9.69999,-7.76c-3.36266,0 -7.76,1.03467 -13.19199,3.104c-12.15733,4.656 -24.18532,13.70933 -36.08398,27.15998c-14.74399,16.81332 -22.11599,32.85065 -22.11599,48.11197c0,9.05333 2.97466,14.48533 8.92399,16.29599c1.29333,0.51733 2.58667,0.776 3.88,0.776c10.60533,0 26.38399,-10.60533 47.33597,-31.81598c5.69066,-5.432 10.47599,-11.25199 14.35599,-17.45999c2.06933,-5.94933 4.78533,-12.80399 8.148,-20.56399c-2.328,1.552 -4.20333,1.746 -5.626,0.582c-1.42267,-1.164 -1.09933,-3.75066 0.97,-7.76c2.06933,-4.00933 3.104,-7.566 3.104,-10.66999z" data-paper-data="{&quot;elementType&quot;:&quot;letter&quot;,&quot;baseline&quot;:49.2,&quot;baselineProportion&quot;:0.8367346938775511,&quot;fontSize&quot;:100}"></path><path d="M344.08995,276.94522c-3.104,0 -5.88466,-1.03467 -8.342,-3.104c-2.45733,-2.06933 -3.686,-4.268 -3.686,-6.596c0,-7.76 2.19867,-13.96799 6.596,-18.62399c6.208,-6.46666 12.67466,-9.69999 19.39999,-9.69999c2.84533,0 5.49666,0.97 7.954,2.91c2.45733,1.94 3.686,5.432 3.686,10.47599c0,5.044 -2.65133,10.41133 -7.954,16.10199c-5.30266,5.69066 -11.18733,8.536 -17.65399,8.536z" data-paper-data="{&quot;elementType&quot;:&quot;letter&quot;,&quot;baseline&quot;:9.099999999999994,&quot;baselineProportion&quot;:0.9285714285714283,&quot;fontSize&quot;:100}"></path></g></g></g></svg>